<?xml version="1.0" encoding="utf-8"?>
<!-- Generator: Adobe Illustrator 24.2.1, SVG Export Plug-In . SVG Version: 6.00 Build 0)  -->
<svg version="1.1" id="a51c0541-c62a-42dd-aa8f-7d3769606fe1"
	 xmlns="http://www.w3.org/2000/svg" xmlns:xlink="http://www.w3.org/1999/xlink" x="0px" y="0px" viewBox="0 0 978.31 705.34"
	 style="enable-background:new 0 0 978.31 705.34;" xml:space="preserve">
<style type="text/css">
	.st0{fill:#FFFF00;stroke:#000000;stroke-miterlimit:10;}
	.st1{fill:#07FF00;stroke:#000000;stroke-miterlimit:10;}
	.st2{fill:#000DFF;stroke:#000000;stroke-miterlimit:10;}
</style>
<polygon class="st0" points="130.31,209.65 154.31,359.65 184.31,433.65 227.31,472.65 304.31,515.65 359.31,515.65 427.31,515.65 
	598.31,515.65 724.31,515.65 836.31,502.65 894.31,501.65 913.31,515.65 939.31,536.65 954.31,559.65 978.31,496.65 945.31,471.65 
	891.31,439.65 795.31,454.65 722.31,469.65 584.31,474.65 415.31,478.65 330.31,478.65 263.31,440.65 228.31,399.65 203.31,337.65 
	189.31,266.65 191.31,183.65 206.31,113.65 231.31,84.65 203.31,30.65 153.31,21.65 130.31,42.65 130.31,84.65 130.31,124.65 "/>
<polygon class="st1" points="945.31,583.65 945.31,687.64 27.31,696.64 27.31,28.65 100.31,28.65 116.31,213.65 130.31,331.65 
	148.31,425.65 177.31,466.65 206.31,499.65 280.31,530.65 404.31,546.65 571.31,531.65 698.31,543.65 771.31,536.65 865.31,525.65 
	"/>
<path class="st1" d="M268.31,237.65l-47-104l23-61l-23-44l732-7v427l-66-29l-69,8l-90,21h-368l-65-18l-29-34l-30-66l-17-64
	C219.31,266.65,209.31,206.65,268.31,237.65z"/>
<path class="st2" d="M283.31,346.65c62.09,5,172.73,37.33,234,44l-40-124L283.31,346.65z"/>
</svg>
