<svg width="260" height="234" viewBox="0 0 260 234" fill="none" xmlns="http://www.w3.org/2000/svg">
<path d="M196 148.129C178.167 166.819 148.7 210.16 173.5 234H134.5C134.5 214.264 132.2 170.714 123 154.403C113.8 139.659 96.5 122.119 89 115.192H105C112 129.7 127.7 154.873 134.5 139.503C141.3 124.132 137.333 96.7632 134.5 85H151C148.5 116.368 146 179.968 156 183.418C166 186.869 171.833 159.239 173.5 144.992L196 148.129Z" fill="url(#paint0_linear)"/>
<path d="M237 44C237 68.3005 247 88 142 88C47 88 47 68.3005 47 44C47 19.6995 47 0 142 0C230 0 237 19.6995 237 44Z" fill="#29A3AB"/>
<path d="M237 44C237 68.3005 247 88 142 88C47 88 47 68.3005 47 44C47 19.6995 47 0 142 0C230 0 237 19.6995 237 44Z" fill="#29A3AB"/>
<path d="M129.825 85C129.825 109.301 136.658 129 64.9125 129C0 129 0 109.301 0 85C0 60.6995 0 41 64.9125 41C125.042 41 129.825 60.6995 129.825 85Z" fill="#2EB39B"/>
<path d="M129.825 85C129.825 109.301 136.658 129 64.9125 129C0 129 0 109.301 0 85C0 60.6995 0 41 64.9125 41C125.042 41 129.825 60.6995 129.825 85Z" fill="#2EB39B"/>
<path d="M259.841 132C259.841 152.435 266.043 169 200.921 169C142 169 142 152.435 142 132C142 111.565 142 95 200.921 95C255.5 95 259.841 111.565 259.841 132Z" fill="#65BE7E"/>
<path d="M259.841 132C259.841 152.435 266.043 169 200.921 169C142 169 142 152.435 142 132C142 111.565 142 95 200.921 95C255.5 95 259.841 111.565 259.841 132Z" fill="#65BE7E"/>
<defs>
<linearGradient id="paint0_linear" x1="142.5" y1="85" x2="144" y2="238.5" gradientUnits="userSpaceOnUse">
<stop stop-color="#443636"/>
<stop offset="0.0001" stop-color="#443636"/>
<stop offset="0.718128" stop-color="#7B6D59"/>
<stop offset="0.937519" stop-color="#82735D"/>
<stop offset="0.979067" stop-color="#8F8166"/>
<stop offset="0.979167" stop-color="#4D3535"/>
<stop offset="1" stop-color="#4D3535"/>
</linearGradient>
</defs>
</svg>
